<svg xmlns="http://www.w3.org/2000/svg" xmlns:xlink="http://www.w3.org/1999/xlink" viewBox="0 0 79.50292629369936 95.48099999999998" height="95.48099999999998" width="79.50292629369936" data-background-color="#ffffff" preserveAspectRatio="xMidYMid meet" id="tight-bounds"><g><svg viewBox="0 0 79.50292629369936 95.48099999999998" height="95.48099999999998" width="79.50292629369936"><g><svg viewBox="0 0 79.50292629369936 95.48099999999998" height="95.48099999999998" width="79.50292629369936"><g id="textblocktransform"><svg viewBox="0 0 79.50292629369936 95.48099999999998" height="95.48099999999998" width="79.50292629369936" id="textblock"><g><svg viewBox="0 0 79.50292629369936 95.48099999999998" height="95.48099999999998" width="79.50292629369936"><g><svg viewBox="0 0 79.50292629369936 95.48099999999998" height="95.48099999999998" width="79.50292629369936"><g><svg xmlns="http://www.w3.org/2000/svg" xmlns:xlink="http://www.w3.org/1999/xlink" version="1.1" x="0" y="0" viewBox="12.656999588012695 5.152000427246094 74.68600463867188 89.69599914550781" enable-background="new 0 0 100 100" xml:space="preserve" height="95.48099999999998" width="79.50292629369936" class="icon-icon-0" data-fill-palette-color="accent" id="icon-0"><path fill="#ff585f" d="M73.25 47.105A1.5 1.5 0 0 1 71.814 45.171L75.589 32.665A1.5 1.5 0 1 1 78.46 33.533L74.685 46.039A1.5 1.5 0 0 1 73.25 47.105" data-fill-palette-color="accent"/><path fill="#ff585f" d="M85.844 47.557H67.774A54 54 0 0 0 67.432 45.911H77.618C82.438 45.911 82.438 39.528 77.618 39.528H69.08L60.053 25.53C58.035 22.426 54.612 22.234 54.612 22.234H53.176C52.551 22.522 51.891 22.748 51.205 22.904 51.17 22.912 51.133 22.918 51.098 22.925 50.82 22.985 50.537 23.031 50.252 23.068 50.17 23.078 50.088 23.089 50.006 23.097 49.68 23.13 49.35 23.152 49.016 23.152S48.356 23.13 48.032 23.097C47.935 23.087 47.84 23.074 47.744 23.061A10 10 0 0 1 47.024 22.94C46.94 22.923 46.854 22.908 46.77 22.888A10 10 0 0 1 44.854 22.233H43.665S40.241 22.398 38.224 25.502L29.196 39.501H25.659C20.839 39.501 20.839 45.884 25.659 45.884H30.424C30.298 46.444 30.182 47.002 30.076 47.557H14.157A1.5 1.5 0 1 0 14.157 50.557H29.606C29.412 52.108 29.297 53.613 29.297 55.011 29.297 60.755 30.009 67.907 35.559 72.275L35.967 72.596H47.5V84.387H38.234L37.789 86.812C35.674 86.931 33.984 88.674 33.984 90.819A4.033 4.033 0 0 0 38.013 94.848 4.034 4.034 0 0 0 42.042 90.819 4 4 0 0 0 40.657 87.803L40.733 87.387H46.833A4.02 4.02 0 0 0 44.888 90.819 4.033 4.033 0 0 0 48.917 94.848 4.035 4.035 0 0 0 52.947 90.819 4.02 4.02 0 0 0 51 87.387H57.293L57.344 87.663C56.405 88.401 55.789 89.534 55.789 90.818A4.033 4.033 0 0 0 59.818 94.847 4.034 4.034 0 0 0 63.847 90.818C63.847 88.741 62.261 87.047 60.24 86.832L59.793 84.387H50.5V72.596H61.524L61.924 72.294C67.795 67.87 68.549 60.733 68.549 55.011 68.549 53.613 68.434 52.108 68.24 50.557H85.842A1.5 1.5 0 0 0 85.844 47.557M38.015 91.848A1.03 1.03 0 0 1 38.015 89.79C38.581 89.79 39.044 90.252 39.044 90.819S38.582 91.848 38.015 91.848M59.82 89.789C60.386 89.789 60.849 90.251 60.849 90.818S60.386 91.847 59.82 91.847A1.03 1.03 0 0 1 59.82 89.789M48.919 91.848A1.03 1.03 0 0 1 48.919 89.79C49.485 89.79 49.948 90.252 49.948 90.819S49.486 91.848 48.919 91.848M60.506 69.596H37.023C33.716 66.759 32.298 62.355 32.298 55.011 32.298 49.273 34.16 41.749 37.041 35.844 38.982 31.868 43.105 25.198 48.926 25.198 54.745 25.198 58.868 31.868 60.807 35.844 63.69 41.749 65.551 49.272 65.551 55.011 65.551 62.317 64.037 66.72 60.506 69.596" data-fill-palette-color="accent"/><path fill="#ff585f" d="M61.693 70.567" data-fill-palette-color="accent"/><g fill="#ff585f" data-fill-palette-color="accent"><path fill="#ff585f" d="M39.835 65.319A1.5 1.5 0 0 1 38.335 63.819V39.896A1.5 1.5 0 1 1 41.335 39.896V63.819A1.5 1.5 0 0 1 39.835 65.319" data-fill-palette-color="accent"/><path fill="#ff585f" d="M48.919 65.319A1.5 1.5 0 0 1 47.419 63.819V39.896A1.5 1.5 0 1 1 50.419 39.896V63.819A1.5 1.5 0 0 1 48.919 65.319" data-fill-palette-color="accent"/><path fill="#ff585f" d="M58.002 65.319A1.5 1.5 0 0 1 56.502 63.819V39.896A1.5 1.5 0 1 1 59.502 39.896V63.819A1.5 1.5 0 0 1 58.002 65.319" data-fill-palette-color="accent"/></g><circle fill="#ff585f" cx="49.015" cy="13.152" r="8" data-fill-palette-color="accent"/><path fill="#ff585f" d="M53.398 33.19H44.634A1.5 1.5 0 1 1 44.634 30.19H53.398A1.5 1.5 0 1 1 53.398 33.19" data-fill-palette-color="accent"/></svg></g></svg></g></svg></g></svg></g></svg></g><g/></svg></g><defs/></svg>